<?xml version="1.0" encoding="UTF-8"?>
<svg width="12px" height="10px" viewBox="0 0 12 10" version="1.1" xmlns="http://www.w3.org/2000/svg" xmlns:xlink="http://www.w3.org/1999/xlink">
    <!-- Generator: Sketch 52.6 (67491) - http://www.bohemiancoding.com/sketch -->
    <title>Fill 1 Copy</title>
    <desc>Created with Sketch.</desc>
    <g id="Symbols" stroke="none" stroke-width="1" fill="none" fill-rule="evenodd">
        <g id="Sidebar/Expanded/Text" transform="translate(-18.000000, -61.000000)" fill="#000000">
            <g id="Group-11" transform="translate(18.000000, 10.000000)">
                <path d="M11.3333333,59.6666667 C11.3333333,60.0333333 11.0333333,60.3333333 10.6666667,60.3333333 L1.33333333,60.3333333 C0.966666667,60.3333333 0.666666667,60.0333333 0.666666667,59.6666667 L0.666666667,53.76 C0.666666667,53.3933333 0.966666667,53.0933333 1.33333333,53.0933333 L10.6666667,53.0933333 C11.0333333,53.0933333 11.3333333,53.3933333 11.3333333,53.76 L11.3333333,59.6666667 Z M0.666666667,52.3333333 C0.666666667,51.9666667 0.966666667,51.6666667 1.33333333,51.6666667 L4.66666667,51.6666667 C5.03333333,51.6666667 5.33333333,51.9666667 5.33333333,52.3333333 L5.33333333,52.4266667 L1.33333333,52.4266667 C1.08666667,52.4266667 0.86,52.4866667 0.666666667,52.6066667 L0.666666667,52.3333333 Z M6,52.4266667 L6,52.3333333 C6,51.6 5.4,51 4.66666667,51 L1.33333333,51 C0.6,51 0,51.6 0,52.3333333 L0,59.6666667 C0,60.4066667 0.593333333,61 1.33333333,61 L10.6666667,61 C11.4066667,61 12,60.4066667 12,59.6666667 L12,53.76 C12,53.0266667 11.4066667,52.4266667 10.6666667,52.4266667 L6,52.4266667 Z" id="Fill-1-Copy"></path>
            </g>
        </g>
    </g>
</svg>